<?xml version="1.0" standalone="no"?>
<!DOCTYPE svg PUBLIC "-//W3C//DTD SVG 20010904//EN"
 "http://www.w3.org/TR/2001/REC-SVG-20010904/DTD/svg10.dtd">
<svg version="1.0" xmlns="http://www.w3.org/2000/svg"
 width="2008.000000pt" height="2008.000000pt" viewBox="0 0 2008.000000 2008.000000"
 preserveAspectRatio="xMidYMid meet">
<metadata>
Created by potrace 1.14, written by Peter Selinger 2001-2017
</metadata>
<g transform="translate(0.000000,2008.000000) scale(0.100000,-0.100000)"
fill="#000000" stroke="none">
<path d="M0 10040 l0 -10040 10040 0 10040 0 0 8030 0 8030 -1522 2 -1523 3
-3 2008 -2 2007 -8515 0 -8515 0 0 -10040z m13990 3345 l0 -2675 -535 0 -535
0 0 -435 0 -435 -2210 0 -2210 0 0 1070 0 1070 1675 0 1675 0 0 970 0 970
-1045 0 -1045 0 -52 33 c-29 19 -78 47 -108 63 -30 16 -61 35 -68 41 -7 7 -20
13 -28 13 -8 0 -14 3 -14 8 0 4 -20 16 -45 27 -25 11 -45 23 -45 28 0 4 -7 7
-15 7 -8 0 -15 5 -15 10 0 6 -6 10 -14 10 -8 0 -21 6 -28 13 -8 6 -23 17 -33
23 -11 6 -47 26 -80 44 -32 18 -83 48 -112 66 -28 19 -55 34 -58 34 -3 0 -40
21 -83 48 -42 26 -95 56 -117 67 -22 11 -41 23 -43 28 -2 4 -10 7 -18 7 -8 0
-14 4 -14 9 0 5 -8 11 -17 14 -10 3 -40 20 -68 36 -27 17 -57 34 -65 38 -8 3
-17 9 -20 12 -3 3 -21 14 -40 25 -72 38 -125 69 -130 75 -3 3 -21 14 -40 25
-71 38 -126 69 -150 86 -14 9 -52 32 -85 50 -33 18 -69 38 -80 44 -10 6 -25
17 -33 24 -7 6 -19 12 -27 12 -7 0 -15 3 -17 8 -4 9 -76 51 -100 59 -10 3 -18
9 -18 14 0 5 -6 9 -14 9 -8 0 -21 6 -28 13 -8 6 -23 17 -33 23 -11 6 -47 26
-80 44 -32 18 -83 48 -112 66 -28 19 -55 34 -58 34 -3 0 -34 18 -69 40 -35 22
-68 40 -75 40 -6 0 -11 3 -11 8 0 4 -15 14 -32 21 -18 8 -39 21 -46 28 -7 7
-20 13 -28 13 -8 0 -14 5 -14 10 0 6 -6 10 -14 10 -8 0 -21 6 -28 13 -7 6 -38
25 -68 41 -30 16 -57 31 -60 35 -3 3 -21 14 -40 25 -57 30 -101 56 -165 94
-93 57 -138 82 -157 89 -10 3 -18 8 -18 12 0 4 -30 22 -67 41 -38 19 -69 38
-71 43 -2 4 -10 7 -18 7 -8 0 -14 5 -14 10 0 6 -6 10 -14 10 -8 0 -21 6 -28
13 -17 15 -88 57 -110 64 -10 3 -18 9 -18 14 0 5 -6 9 -13 9 -7 0 -28 11 -47
23 -30 20 -77 48 -175 101 -11 6 -22 14 -25 17 -3 3 -12 9 -20 12 -8 3 1761 6
3933 6 l3947 1 0 -2675z m-5760 -2475 l0 -1070 -1070 0 -1070 0 0 1070 0 1070
1070 0 1070 0 0 -1070z m0 -4145 l0 -2745 -1070 0 -1070 0 0 2738 c0 1506 3
2742 7 2745 3 4 485 7 1070 7 l1063 0 0 -2745z m4620 1535 l0 -1070 -1070 0
-1070 0 0 1070 0 1070 1070 0 1070 0 0 -1070z m1140 -2875 l0 -1405 -1070 0
-1070 0 0 1405 0 1405 1070 0 1070 0 0 -1405z"/>
</g>
</svg>
